REM Ripping Tool: trurip

FILE "Cal III - Kanketsu-hen (1994)(NEC Avenue)(JP).img" BINARY
  TRACK 01 AUDIO
    INDEX 01 00:00:00
  TRACK 02 MODE1/2352
    INDEX 00 00:47:27
    INDEX 01 00:50:27
  TRACK 03 AUDIO
    INDEX 00 13:30:55
    INDEX 01 13:32:55
  TRACK 04 AUDIO
    INDEX 01 18:56:55
  TRACK 05 MODE1/2352
    INDEX 00 24:05:06
    INDEX 01 24:08:06

REM DISC HASHES
REM CRC32 : aa50d488
REM MD5   : 44d44aff7551164a871bb3ebdf58913c
REM SHA1  : 712cc204990e311c9417ea2c4d556730e1d39a8a

REM Gap Append Method: Prev [crc32]
REM Trk 01: 15645707
REM Trk 02: 5f8dfc53
REM Trk 03: be5b990b
REM Trk 04: 52ae8407
REM Trk 05: 38e3def0

REM Gap Append Method: Prev [md5]
REM Trk 01: 32683a69bb3aabd97fefbcfce3e12a06
REM Trk 02: a5fb587438218144b4c998ed74473b51
REM Trk 03: 21e1eb2c206f066f304607e5b55d0296
REM Trk 04: 4091c1b95a6e59f80a6c20a40196ebf8
REM Trk 05: 59a0622fc3e3feaf7a284b13d769f0d2

REM Gap Append Method: Prev [sha1]
REM Trk 01: 68a672cec78f1f73ac741cc347efad1d63a1a459
REM Trk 02: 7d8729d33cf406539d5d420dbb422ec8e9e5db1d
REM Trk 03: 0a2d61980147b2b61f85db84d85e5467033205fe
REM Trk 04: a1fe6ed5fc583abbb79863c8122fa937a759e08c
REM Trk 05: e140e7f62f25a22ca2914779740a0dcc21a5540b

REM Gap Append Method: None [crc32]
REM Trk 01: cc391e99
REM Trk 02: 15618ab3
REM Trk 03: be5b990b
REM Trk 04: b1cc786c
REM Trk 05: 38e3def0
REM Gap 02: 09afc782
REM Gap 03: 7abe247f
REM Gap 05: 072f2cc9

REM Gap Append Method: None [md5]
REM Trk 01: 0bf13061363b53958ee9aa835f27d988
REM Trk 02: 1c08eaa5be8534cd40fab8bd582be17a
REM Trk 03: 21e1eb2c206f066f304607e5b55d0296
REM Trk 04: 9b0d47c18bc9c21d1d01f1d5672d03f0
REM Trk 05: 59a0622fc3e3feaf7a284b13d769f0d2
REM Gap 02: b4f59fb346207a2c4917a82e57f06023
REM Gap 03: 9df204fbc98bb8965081cb30a89715fc
REM Gap 05: 87a7b139d3084eec89efeadbc00a86a5

REM Gap Append Method: None [sha1]
REM Trk 01: 99e11cd26e32d50fcade3721ee81991508883360
REM Trk 02: 93b0653063407eeb861b62fc535b3f14e6e867e9
REM Trk 03: 0a2d61980147b2b61f85db84d85e5467033205fe
REM Trk 04: f67f040d4757597527109f7cada22f07f4aad353
REM Trk 05: e140e7f62f25a22ca2914779740a0dcc21a5540b
REM Gap 02: 95cb6b63964a393924997b16525793a7ed0f47ef
REM Gap 03: cbe29e0bd725ef1194f8c47619dd42078e841de2
REM Gap 05: c03782c407ec69f876814b6df7ba52a4280a61e8

REM Gap Append Method: Next [crc32]
REM Trk 01: cc391e99
REM Trk 02: 5b3482be
REM Trk 03: a2b910aa
REM Trk 04: b1cc786c
REM Trk 05: f77a61cd

REM Gap Append Method: Next [md5]
REM Trk 01: 0bf13061363b53958ee9aa835f27d988
REM Trk 02: 0e8ef8956ad03d0f2cd61889135f919d
REM Trk 03: f725ed3e311efe6bb4cbe17c77159f3d
REM Trk 04: 9b0d47c18bc9c21d1d01f1d5672d03f0
REM Trk 05: e435e94cf942f10f00f0554a48ac1933

REM Gap Append Method: Next [sha1]
REM Trk 01: 99e11cd26e32d50fcade3721ee81991508883360
REM Trk 02: a948f3b94557452926ff588b4c161f22fd586f9b
REM Trk 03: ea4945e463b3a9e885e9b5d51983b989f5c5e831
REM Trk 04: f67f040d4757597527109f7cada22f07f4aad353
REM Trk 05: 6311e4736357d0c8eea0f04d7f2412c129e71a49

